<svg version="1.2" xmlns="http://www.w3.org/2000/svg" viewBox="0 0 1001 1417" width="1001" height="1417">
	<style>
		.s0 { fill: #000000 } 
		.s1 { fill: #ffffff } 
	</style>
	<g id="Folder 4">
		<path id="Layer copy 3" class="s0" d="m661.61 452.37v511.63h-323.61v-511.63z"/>
		<path id="H" class="s1" d="m393.2 641.9h62.3v89.6h90v-89.6h62.6v240.1h-62.6v-97.2h-90v97.2h-62.3z"/>
		<path id="High" class="s1" d="m417.6 542.6h13.8v20h20v-20h14v53.4h-14v-21.6h-20v21.6h-13.8zm57.8 53.4v-35.8h12.8v35.8zm1.3-45.6q-2.1-2.1-2.1-5.1 0-2.9 2.1-5 2.1-2.2 5.1-2.2 3 0 5 2.2 2.2 2.1 2.2 5 0 3-2.2 5.1-2 2.1-5 2.1-3 0-5.1-2.1zm47.1 13.5v-3.7h12.8v33.5q0 4.8-0.9 8.3-0.9 3.4-3.9 6.5-5.7 5.8-15.8 5.8-10.5 0-16.7-6.3-3.3-3.5-3.9-7.5h14.2q1.2 3.7 6 3.7 3.6 0 5.7-2 2.5-2.4 2.5-6.6v-3.6q-4.4 4.7-10.7 4.7-8.3 0-13.2-5.1-4.9-5.1-4.9-13 0-8.5 5.2-14 5.2-5.4 13-5.4 6.5 0 10.6 4.7zm-7.6 5.9q-3.2 0-5.6 2.4-2.5 2.6-2.5 5.8 0 3.3 2.5 5.8 2.3 2.3 5.7 2.3 3.4 0 5.8-2.4 2.4-2.4 2.4-5.7 0-3.3-2.6-5.9-2.3-2.3-5.7-2.3zm42 26.2h-12.8v-58.4h12.8v27.1q1.8-2.3 4-3.5 3-1.8 7.4-1.8 6.7 0 10.5 3.8 2.2 2.2 2.7 4.5 0.7 2.3 0.7 5.5v22.8h-12.8v-18.1q0-5.2-1.6-7-1.4-1.5-4.1-1.5-3 0-4.6 1.5-2.2 2-2.2 5.9z"/>
	</g>
	<g id="Layer 1">
	</g>
</svg>