<svg version="1.2" xmlns="http://www.w3.org/2000/svg" viewBox="0 0 1001 1417" width="1001" height="1417">
	<style>
		.s0 { fill: #000000 } 
		.s1 { fill: #ffffff } 
	</style>
	<g id="Folder 2">
		<path id="Layer copy" class="s0" d="m661.61 452v511.63h-323.61v-511.63z"/>
		<path id="L" class="s1" d="m406.4 882v-257.7h79.6v194.2h124.3v63.5z"/>
		<path id="Low" class="s1" d="m415.9 596v-57.3h17.7v43.2h27.6v14.1zm50-20.6q0-9.5 6.4-15.7 6.4-6.1 17.3-6.1 12.4 0 18.8 7.2 5.1 5.8 5.1 14.3 0 9.6-6.3 15.7-6.4 6.1-17.6 6.1-10 0-16.2-5-7.5-6.3-7.5-16.5zm15.9-0.1q0 5.6 2.2 8.2 2.3 2.7 5.7 2.7 3.4 0 5.6-2.6 2.2-2.6 2.2-8.4 0-5.4-2.2-8-2.2-2.7-5.5-2.7-3.5 0-5.7 2.7-2.3 2.7-2.3 8.1zm48.7 20.7l-15.4-41.5h15.4l6.7 26.1 8.4-26.1h14.4l8.7 26.1 6.7-26.1h15.3l-15.3 41.5h-14.1l-8.4-25-8.2 25z"/>
	</g>
	<g id="Layer 1">
	</g>
</svg>