<svg version="1.2" xmlns="http://www.w3.org/2000/svg" viewBox="0 0 1001 1417" width="1001" height="1417">
	<style>
		.s0 { fill: #000000 } 
		.s1 { fill: #ffffff } 
	</style>
	<g id="Folder 3">
		<path id="Layer copy 2" class="s0" d="m661.61 452v511.63h-323.61v-511.63z"/>
		<path id="M" class="s1" d="m367.6 882h57.3v-129.2c0-10.5-1.1-51.9-1.1-51.9h0.7c0 0 9 38.9 11.9 48.3l36.7 132.8h52.6l37.1-133.2c2.8-9.4 11.8-47.9 11.8-47.9h0.8c0 0-1.1 41.1-1.1 51.5v129.6h58.3v-257.4h-86.4l-31.7 112.7c-4.3 16.2-14.4 58.7-14.4 58.7h-0.7c0 0-10.1-42.5-14.8-58.7l-31.3-112.7h-85.7z"/>
		<path id="Medium" class="s1" d="m357.9 596h12.7v-28.7c0-2.3-0.2-11.5-0.2-11.5h0.2c0 0 2 8.6 2.6 10.7l8.2 29.5h11.6l8.3-29.6c0.6-2.1 2.6-10.6 2.6-10.6h0.2c0 0-0.3 9.1-0.3 11.4v28.8h13v-57.2h-19.2l-7 25c-1 3.6-3.2 13.1-3.2 13.1h-0.2c0 0-2.2-9.5-3.3-13.1l-6.9-25h-19.1zm85.2 1.2c5.2 0 9.4-1.4 12.8-3.8 3.6-2.4 6-6 6.9-9.6h-12.7c-1.1 2.5-3.4 4-6.8 4-5.4 0-8.4-3.4-9.2-8.9h29.4c0.1-8.3-2.3-15.5-7.2-19.9-3.5-3.2-8.1-5.2-14-5.2-12.5 0-21 9.4-21 21.6 0 12.4 8.3 21.8 21.8 21.8zm-8.9-26.1c0.8-4.9 3.4-8 8.4-8 4.2 0 7.2 3.1 7.7 8zm50.1 26.2c5.3 0 9.6-2.6 12-6.8h0.2v5.5h12.5v-57.2h-13.1v20.9h-0.2c-2.4-3.5-5.7-5.9-11.4-5.9-10.6 0-18 8.9-18 21.7 0 13.7 7.5 21.8 18 21.8zm3.3-10.3c-5 0-8.1-4.5-8.1-11.6 0-6.9 3.1-11.7 8.3-11.7 5.7 0 8.5 4.9 8.5 11.8 0 6.7-3.2 11.5-8.7 11.5zm27.6 9h13v-41h-13zm0-46.6h13v-10.6h-13zm34.1 47.9c5.6 0 9.2-2.3 12.2-6.3h0.2v5.1h12.5v-41h-13v22.9c0 4.9-2.7 8.2-7.2 8.2-4.2 0-6.2-2.4-6.2-6.9v-24.2h-12.9v26.9c0 9.1 4.9 15.3 14.4 15.3zm30.9-1.2h13v-23c0-4.9 2.4-8.3 6.5-8.3 3.9 0 5.8 2.6 5.8 7v24.3h13v-23c0-4.9 2.3-8.3 6.5-8.3 3.9 0 5.7 2.6 5.7 7v24.3h13.1v-26.7c0-9.2-4.7-15.5-13.9-15.5-5.3 0-9.7 2.3-12.9 7.2h-0.2c-2.1-4.4-6.1-7.2-11.5-7.2-5.9 0-9.8 2.8-12.4 7.1h-0.2v-5.9h-12.5z"/>
	</g>
	<g id="Layer 1">
	</g>
</svg>