<svg version="1.2" xmlns="http://www.w3.org/2000/svg" viewBox="0 0 1001 1417" width="1001" height="1417">
	<style>
		.s0 { fill: #000000 } 
		.s1 { fill: #ffffff } 
	</style>
	<g id="Layer 1">
		<g id="Folder 1">
			<path class="s0" d="m661.61 452v511.63h-323.61v-511.63z"/>
			<path id="N" class="s1" d="m606.8 626.1v255.9h-59.2l-93.7-161-1.1 0.3v160.7h-59.4v-255.9h59.4l93.7 160.8 1.1-0.3v-160.5z"/>
			<path id="None" class="s1" aria-label="None"  d="m458 539.1v56.9h-13.2l-20.8-35.8-0.3 0.1v35.7h-13.2v-56.9h13.2l20.9 35.8 0.2-0.1v-35.7zm6 36.2v-0.8q0-9.6 5.4-15.5 5.4-6 15.1-6 9.6 0 15 6 5.4 5.9 5.4 15.5v0.8q0 9.6-5.4 15.5-5.4 6-15 6-9.7 0-15.1-6-5.4-5.9-5.4-15.5zm13.2-0.8v0.8q0 5.3 1.7 8.4 1.7 3 5.6 3 3.9 0 5.6-3.1 1.7-3 1.7-8.3v-0.8q0-5.2-1.7-8.3-1.7-3.1-5.6-3.1-3.9 0-5.6 3.1-1.7 3.2-1.7 8.3zm33.4-20.8h12.3l0.5 6q2.1-3.2 5.2-5 3-1.7 6.8-1.7 6.2 0 9.6 4.2 3.6 4.2 3.6 13.4v25.4h-13.2v-25.5q0-4-1.3-5.7-1.3-1.7-3.8-1.7-2.1 0-3.8 0.8-1.7 0.7-2.8 2.1v30h-13.1zm63.9 43.1q-9.6 0-15-5.8-5.5-5.9-5.5-14.8v-1.4q0-9.7 5.1-15.8 5.2-6.1 14.9-6.1 8.6 0 13.3 5.1 4.7 5.2 4.7 14.1v6.9h-24.2l-0.1 0.2q0.3 3.3 2.5 5.4 2.1 2 6.1 2 3.8 0 6.3-0.6 2.6-0.6 5.8-2l3.2 8.1q-2.8 2-7.4 3.3-4.6 1.4-9.7 1.4zm-0.5-33.7q-3.1 0-4.7 2-1.4 2-1.7 5.4l0.1 0.2h11.4v-1q0-3.3-1.2-4.9-1.1-1.7-3.9-1.7z"/>
		</g>
	</g>
</svg>