<svg version="1.2" xmlns="http://www.w3.org/2000/svg" viewBox="0 0 1001 1417" width="1001" height="1417">
	<style>
		.s0 { fill: #000000 } 
		.s1 { fill: #ffffff } 
	</style>
	<g id="Folder 5">
		<path id="Layer copy 4" class="s0" d="m661.61 452.37v511.63h-323.61v-511.63z"/>
		<path id="X" class="s1" d="m529.8 848.2l-45-64.5-35 49.3q-11.1 17-11.1 23.4 0 6.9 8.3 9.4l15.4 1.8q10.1 1.1 10.1 8.6 0 8-14.4 8l-9.7-0.4q-12.6 0-27.4-0.7-14.7-1.1-15.4-1.1-5.8 0-9.8 0-3.9 0-15.4 1.4l-8.7 0.4q-10.1 0-10.1-7.6 0-5 2.2-6.1 2.2-1.1 17.6-3.2 22.7-3.3 48.6-38.5l37.1-50.1q4.7-6.8 4.7-9.3-0.4-1.1-0.4-1.5-0.7-1.4-2.5-4.3l-57.2-76.3q-14.8-19.8-21.3-23.8-6.1-4.3-18.7-5.4-12.2-1.4-12.2-8.3 0-7.9 13.7-7.9l13.6 0.7q2.2 0.4 13 0.8 10.8 0 18.4 0h15.8q23.4 0 40-1.5l19-1.4q12.3 0 12.3 8.3 0 4.6-4 6.8-3.6 2.2-14.4 2.2-10.1 0-10.1 7.2 0 3.6 4 9.3l34.9 52.2 27.4-39.2q9-12.3 9-19.8 0-5.4-3.6-7.2-3.3-2.2-13.7-3.6-10.1-1.5-10.1-8.3 0-7.9 15.5-7.9l11.5 0.3 29.5 1.1 28.1-1.4 11.9-0.4q14.4 0 14.4 7.9 0 5.4-5.8 7.6l-21.6 2.2q-19.4 0-59.4 52.5-19 24.9-19 29.5 0 1.5 3.6 6.5l64.8 90.7q14 19.1 19 23.4 5.1 4.4 18.4 8.3 6.1 1.5 6.5 7.2 0 7.9-13.3 7.9h-4.4l-59.4-1q-10.4 0-18.7 0-7.9 0-20.1 1.4l-8.3 0.4q-10.8 0-10.8-8 0-9 15.5-9 12.6 0 12.6-7.2 0-3.9-5.4-11.8z"/>
		<path id="Extreme" class="s1" d="m364.7 596l-9.3 0.4q-0.9 0-1.2-0.1-0.2-0.1-0.2-0.7v-1.8q0-0.4 0.1-0.5 0.2-0.2 0.6-0.2l2.5-0.3q2.3-0.3 3.2-2 1-1.8 1-5.9v-32.7q0-4.1-1-5.8-0.9-1.8-3.2-2.1l-2.5-0.3q-0.4 0-0.6-0.2-0.1-0.1-0.1-0.5v-1.9q0-0.5 0.2-0.6 0.3-0.2 1.2-0.1l9.7 0.4h6.9-4.1l27.3-0.3q0.4 0 0.6 0.2 0.2 0.2 0.2 0.8v5.8 5.8q0 0.3-0.2 0.5-0.2 0.2-0.5 0.2h-1.7q-0.2 0-0.5-0.2-0.2-0.2-0.2-0.5l-0.5-3.1q-0.6-3.1-3-4.3-2.5-1.2-8-1.2h-3.1q-3.8 0-5.1 1.2-1.2 1.3-1.2 5.1v14.3h9.4q2.3 0 3.5-0.8 1.2-0.9 1.7-3l0.6-2.2q0-0.3 0.3-0.5 0.2-0.3 0.4-0.3h1.8q0.3 0 0.5 0.3 0.3 0.2 0.3 0.5-0.6 4.6-0.6 7.9 0 3.3 0.6 7.9 0 0.3-0.3 0.6-0.2 0.2-0.5 0.2h-1.8q-0.2 0-0.4-0.2-0.3-0.3-0.3-0.6l-0.6-2.2q-0.5-2.1-1.7-2.9-1.2-0.9-3.5-0.9h-9.4v15.7q0 5.2 1.1 6.3 1.1 1.1 6.3 1.1h2.5q6.9 0 10.4-1.3 3.4-1.3 5.1-4.5l1.3-2.7q0.2-0.3 0.4-0.4 0.3-0.1 0.6-0.1l1.6 0.5q0.3 0.1 0.4 0.4 0.2 0.2 0.1 0.6l-1.8 5.2-1.8 5.3q-0.3 1-0.8 1l-29.8-0.3h4.4zm49.9-10.8l4.9-6.5-6.6-9.8q-2.2-3.2-3.6-4.6-1.4-1.4-2.8-1.7l-1.3-0.3q-0.6-0.1-0.6-0.6v-1.7q0-0.4 0.3-0.6 0.2-0.1 1-0.1 4.8 0.4 8.3 0.4 3.5 0 8.2-0.4 0.8-0.1 1.1 0.1 0.3 0.1 0.3 0.6v1.7q0 0.5-0.7 0.6l-1.6 0.3q-1.4 0.3-1.5 1.1-0.1 0.9 1.1 2.7l4.6 6.7 5.1-6.7q1.4-1.8 1.3-2.7 0-0.8-1.5-1.1l-1.5-0.3q-0.7-0.1-0.7-0.6v-1.7q0-0.5 0.3-0.6 0.3-0.2 1-0.1 3.2 0.4 5.6 0.4 2.3 0 5.6-0.4 0.8 0 1.1 0.1 0.2 0.2 0.2 0.6v1.7q0 0.5-0.8 0.6l-1.5 0.3q-1.5 0.3-3.4 2.1-1.9 1.7-5.1 5.8l-4 5.2 7.6 11.1q2.2 3.2 3.6 4.6 1.4 1.4 2.7 1.7l1.3 0.3q0.7 0.1 0.7 0.6v1.7q0 0.5-0.3 0.7-0.3 0.1-1.1 0-4.8-0.4-8.3-0.4-3.4 0-8.2 0.4-0.8 0.1-1.1 0-0.2-0.2-0.2-0.7v-1.7q0-0.5 0.6-0.6l1.6-0.3q1.4-0.3 1.5-1.1 0.1-0.9-1.1-2.7l-5.3-7.8-5.9 7.8q-1.4 1.8-1.4 2.7 0 0.8 1.5 1.1l1.6 0.3q0.4 0 0.5 0.2 0.2 0.1 0.2 0.4v1.7q0 0.5-0.3 0.7-0.3 0.1-1.1 0-3.2-0.4-5.6-0.4-2.5 0-5.8 0.4-0.8 0-1-0.1-0.3-0.1-0.3-0.6v-1.7q0-0.5 0.9-0.6l1.5-0.3q1.4-0.2 3.3-2 2-1.8 5.1-5.9zm36.5 2.4v-21.4q0-1.2-0.8-2-0.8-0.9-2.1-0.9h-1q-0.5 0-0.8-0.2-0.3-0.3-0.3-0.8v0.1q0-0.5 0.3-1 0.2-0.5 0.6-0.8 3.4-3 5.7-5.3l5.6-5.9q0.3-0.2 0.6-0.4 0.4-0.2 0.7-0.2 0.3 0 0.5 0.2 0.2 0.2 0.2 0.5v10.2h11.2q0.5 0 0.5 0.6v2.5q0 0.5-0.5 0.5h-11.2v21.5q0 2.6 1.6 4.5 1.7 1.9 4 1.9 1.4 0 3-0.6 1.5-0.6 2.4-1.5 0.3-0.3 0.7-0.3 0.3 0 0.7 0.3 0.3 0.3 0.3 0.8 0.1 0.4-0.1 0.8-1.6 3-4.8 4.7-3.1 1.7-7 1.7-5 0-7.5-2.4-2.5-2.3-2.5-7.1zm30.8-0.8v-14q0-3.3-0.8-4.5-0.7-1.1-3.4-2-0.6-0.2-0.9-0.5-0.2-0.2-0.2-0.6v-0.5q0-0.6 1.1-1.1 3.6-1.1 6.1-2.2 2.4-1.2 5.7-3.2 0.6 0 0.8 0.2 0.2 0.2 0.2 0.6v8.8q4-5 6-6.8 2.6-2.4 5-2.4 2.3 0 3.8 1.4 1.5 1.4 1.5 3.3 0 2.6-1.4 4.1-1.4 1.3-3.8 1.4-1.2 0-2.5-0.9-1.3-1-2.5-1-0.9 0-1.9 0.7-0.9 0.6-2.6 2.3-0.8 0.9-1.6 2v14.9q0 3.8 0.6 4.9 0.6 1.1 2.9 1.4l2 0.3q0.8 0.1 0.8 0.6v1.7q0 0.5-0.3 0.6-0.2 0.1-1 0.1-5-0.4-8.6-0.4-3.6 0-8.6 0.4-0.7 0-1-0.1-0.3-0.1-0.3-0.6v-1.7q0-0.5 0.7-0.6l1.5-0.3q1.7-0.3 2.2-1.4 0.5-1.1 0.5-4.9zm43.5 10.3q-6.4 0-10.9-5.3-4.4-5.3-4.4-12.9 0-8.5 5.2-14.4 5.2-5.9 12.7-5.9 6.7 0 10.2 3.3 3.4 3.2 3.4 9.3 0.1 1.6-0.3 1.9-0.3 0.4-1.8 0.4l-20.5 0.6v1.2q0 6.6 3.5 10.4 3.5 3.9 9.4 3.9 2.3 0 4.3-1.1 1.7-1 3.2-2.7 0.2-0.2 0.4-0.3 0.3 0 0.5 0.2l0.9 1.1q0.2 0.2 0.2 0.6 0 0.3-0.1 0.5-2.4 4.3-6.4 6.7-4.2 2.5-9.5 2.5zm-6.1-26.6l9.5-0.3q2.8-0.1 3.7-1.2 0.9-1.2-0.3-3.5-1.6-3.3-5.3-3.3h-0.1q-3.8 0-5.8 3.4-1.1 1.9-1.7 4.9zm30.6 16.3v-14q0-3.4-0.7-4.5-0.7-1.2-3.4-2-0.7-0.2-0.9-0.5-0.2-0.2-0.2-0.6v-0.5q0-0.4 0.2-0.6 0.2-0.2 0.9-0.5 3.7-1.1 6.3-2.2 2.5-1.2 5.9-3.2 0.6 0 0.8 0.2 0.3 0.2 0.3 0.6v6.5q2.1-2.2 4.3-3.7 4.7-3.2 8.9-3.2 4.8 0 7.6 2.8 1.7 1.7 2.4 4.4 2.3-2.3 4.7-4 4.7-3.2 8.9-3.2 4.8 0 7.6 2.8 2.7 2.8 2.7 7.5v17.9q0 3.8 0.5 4.9 0.5 1.1 2.3 1.4l1.6 0.3q0.7 0.1 0.7 0.6v1.7q0 0.5-0.2 0.6-0.3 0.1-1.1 0.1-4.8-0.4-8.2-0.4-3.4 0-8.2 0.4-0.8 0.1-1.1 0-0.2-0.2-0.2-0.7v-1.7q0-0.5 0.6-0.6l1.5-0.3q1.8-0.3 2.2-1.4 0.5-1.1 0.5-4.9v-15.8q0-2.9-1.7-4.6-1.7-1.7-4.6-1.7-3.1 0-5.8 1.9-1.3 0.9-2.3 2.1v18.1q0 3.8 0.4 4.9 0.5 1.1 2.2 1.4l1.5 0.3q0.7 0.1 0.7 0.6v1.7q0 0.5-0.3 0.7-0.3 0.1-1 0-4.7-0.4-8.1-0.4-3.4 0-8.1 0.4-0.8 0.1-1.1 0-0.2-0.2-0.2-0.7v-1.7q0-0.5 0.6-0.6l1.6-0.3q1.7-0.3 2.1-1.4 0.5-1.1 0.5-4.9v-13.8q0-3.9-1.7-6.1-1.7-2.2-4.6-2.2-3.1 0-5.8 1.9-1.3 0.9-2.3 2.1v18.1q0 3.8 0.4 4.9 0.5 1.1 2.2 1.4l1.5 0.3q0.7 0.1 0.7 0.6v1.7q0 0.5-0.3 0.7-0.2 0.1-1 0-4.7-0.4-8.1-0.4-3.4 0-8.1 0.4-0.8 0.1-1.1 0-0.2-0.2-0.2-0.7v-1.7q0-0.5 0.6-0.6l1.6-0.3q1.7-0.3 2.1-1.4 0.5-1.1 0.5-4.9zm80.5 10.3q-6.4 0-10.9-5.3-4.4-5.3-4.4-12.9 0-8.5 5.2-14.4 5.2-5.9 12.7-5.9 6.7 0 10.2 3.3 3.4 3.2 3.4 9.3 0.1 1.6-0.3 1.9-0.3 0.4-1.8 0.4l-20.5 0.6v1.2q0 6.6 3.5 10.4 3.5 3.9 9.4 3.9 2.3 0 4.3-1.1 1.7-1 3.2-2.7 0.2-0.2 0.4-0.3 0.3 0 0.5 0.2l0.9 1.1q0.2 0.2 0.2 0.6 0 0.3-0.1 0.5-2.4 4.3-6.4 6.7-4.2 2.5-9.5 2.5zm-6.1-26.6l9.5-0.3q2.8-0.1 3.7-1.2 0.9-1.2-0.3-3.5-1.6-3.3-5.3-3.3h-0.1q-3.8 0-5.8 3.4-1.1 1.9-1.7 4.9z"/>
	</g>
	<g id="Layer 1">
	</g>
</svg>